<svg xmlns="http://www.w3.org/2000/svg" width="80" height="80" viewBox="0 0 80 80"><g transform="translate(-2503.743 -361.957)"><circle cx="40" cy="40" r="40" transform="translate(2503.742 361.957)" fill="#22ceff"/><path d="M2523.861,394.914a21.192,21.192,0,0,1,39.758.011,5.866,5.866,0,0,1,3.927-2.591,25.818,25.818,0,0,0-47.612,0A5.864,5.864,0,0,1,2523.861,394.914Z" fill="#fff"/><path d="M2536.393,421.5a20.925,20.925,0,0,1-12.606-12.641,5.757,5.757,0,0,1-3.858,2.581,25.453,25.453,0,0,0,15.5,14.554,5.337,5.337,0,0,1-.1-1.048v-.235A5.357,5.357,0,0,1,2536.393,421.5Z" fill="#fff"/><path d="M2522.964,406.065v-8.342a4.041,4.041,0,0,0-3.636-3.91c-.121-.012-.255-.019-.384-.019h-.258a4.042,4.042,0,0,0-4.031,4.03v8.138a4.042,4.042,0,0,0,4.031,4.029h.258c.129,0,.257-.007.384-.019A4.041,4.041,0,0,0,2522.964,406.065Z" fill="#fff"/><path d="M2568.8,393.792h-.26c-.133,0-.265.008-.394.02a4.043,4.043,0,0,0-3.637,3.954v8.194a4.044,4.044,0,0,0,4.031,4.029h.258a4.043,4.043,0,0,0,4.03-4.029v-8.137A4.044,4.044,0,0,0,2568.8,393.792Z" fill="#fff"/><path d="M2546.306,421.04h-5.159a3.693,3.693,0,0,0-3.675,3.675v.235a3.637,3.637,0,0,0,.385,1.621,3.682,3.682,0,0,0,3.29,2.053h5.159a3.685,3.685,0,0,0,3.679-3.669v-.243A3.685,3.685,0,0,0,2546.306,421.04Z" fill="#fff"/><path d="M2556.48,420.277a.714.714,0,0,0,.41-.129,22.086,22.086,0,0,0,5.49-5.5.718.718,0,1,0-1.178-.82h0a20.664,20.664,0,0,1-5.135,5.143.718.718,0,0,0,.413,1.3Z" fill="#fff"/><path d="M2566.733,413.131a.718.718,0,0,0-.97.288,24.6,24.6,0,0,1-9.742,9.811.718.718,0,0,0,.694,1.257h0a26.051,26.051,0,0,0,10.309-10.382.718.718,0,0,0-.288-.973Z" fill="#fff"/><path d="M2560.922,395.518h-23.3l.337-4.789-3.743,4.789h-7.661a17.522,17.522,0,0,0-1.18,6.323,18.062,18.062,0,0,0,15.111,17.647,18.574,18.574,0,0,0,6.491,0,18.048,18.048,0,0,0,15.111-17.647A17.518,17.518,0,0,0,2560.922,395.518ZM2551.6,408.5c-.6,9.569-15.137,9.436-15.758,0a.6.6,0,0,1,.577-.629H2551a.6.6,0,0,1,.6.6Z" fill="#fff"/><path d="M2537.545,402.925v-1.94a1.757,1.757,0,0,0-3.515,0v1.94a1.757,1.757,0,0,0,3.515,0Z" fill="#22ceff"/><path d="M2551.435,399.235a1.756,1.756,0,0,0-1.757,1.755v1.939a1.758,1.758,0,1,0,3.515,0V400.99a1.755,1.755,0,0,0-1.757-1.755Z" fill="#22ceff"/></g></svg>