<svg width="102" height="102" xmlns="http://www.w3.org/2000/svg" xmlns:xlink="http://www.w3.org/1999/xlink" overflow="hidden"><defs><clipPath id="clip0"><rect x="415" y="316" width="102" height="102"/></clipPath><clipPath id="clip1"><rect x="444" y="345" width="45" height="46"/></clipPath><clipPath id="clip2"><rect x="444" y="345" width="45" height="46"/></clipPath><clipPath id="clip3"><rect x="444" y="345" width="45" height="46"/></clipPath></defs><g clip-path="url(#clip0)" transform="translate(-415 -316)"><path d="M416 367C416 339.386 438.386 317 466 317 493.614 317 516 339.386 516 367 516 394.614 493.614 417 466 417 438.386 417 416 394.614 416 367Z" fill="#FFD966" fill-rule="evenodd"/><g clip-path="url(#clip1)"><g clip-path="url(#clip2)"><g clip-path="url(#clip3)"><path d="M40.3125 37.5 36.5625 37.5C36.045 37.5 35.625 37.08 35.625 36.5625 35.625 36.045 36.045 35.625 36.5625 35.625L40.3125 35.625C41.8631 35.625 43.125 34.3631 43.125 32.8125L43.125 12.1875C43.125 10.6369 41.8631 9.375 40.3125 9.375L18.75 9.375C18.5006 9.375 18.2625 9.27563 18.0863 9.10125L14.6119 5.625 4.6875 5.625C3.13687 5.625 1.875 6.88688 1.875 8.4375L1.875 32.8125C1.875 34.3631 3.13687 35.625 4.6875 35.625L8.4375 35.625C8.955 35.625 9.375 36.045 9.375 36.5625 9.375 37.08 8.955 37.5 8.4375 37.5L4.6875 37.5C2.10188 37.5 1.66533e-15 35.3963 1.66533e-15 32.8125L1.66533e-15 8.4375C1.66533e-15 5.85375 2.10188 3.75 4.6875 3.75L15 3.75C15.2494 3.75 15.4875 3.84938 15.6637 4.02375L19.1381 7.5 40.3125 7.5C42.8981 7.5 45 9.60375 45 12.1875L45 32.8125C45 35.3963 42.8981 37.5 40.3125 37.5Z" transform="matrix(1 0 0 1.02222 444 345)"/><path d="M22.5 35.1562C21.9825 35.1562 21.5625 34.7362 21.5625 34.2188L21.5625 19.6875C21.5625 19.17 21.9825 18.75 22.5 18.75 23.0175 18.75 23.4375 19.17 23.4375 19.6875L23.4375 34.2188C23.4375 34.7381 23.0175 35.1562 22.5 35.1562Z" transform="matrix(1 0 0 1.02222 444 345)"/><path d="M22.5 35.625C22.26 35.625 22.02 35.5331 21.8363 35.3512L17.1488 30.6637C16.7831 30.2981 16.7831 29.7038 17.1488 29.3381 17.5144 28.9725 18.1087 28.9725 18.4744 29.3381L22.5 33.3619 26.5238 29.3381C26.8894 28.9725 27.4837 28.9725 27.8494 29.3381 28.215 29.7038 28.215 30.2981 27.8494 30.6637L23.1619 35.3512C22.98 35.5331 22.74 35.625 22.5 35.625Z" transform="matrix(1 0 0 1.02222 444 345)"/><path d="M29.0625 41.25 15.9375 41.25C14.3869 41.25 13.125 39.9881 13.125 38.4375L13.125 34.6875C13.125 34.17 13.545 33.75 14.0625 33.75 14.58 33.75 15 34.17 15 34.6875L15 38.4375C15 38.955 15.4219 39.375 15.9375 39.375L29.0625 39.375C29.5781 39.375 30 38.955 30 38.4375L30 34.6875C30 34.17 30.42 33.75 30.9375 33.75 31.455 33.75 31.875 34.17 31.875 34.6875L31.875 38.4375C31.875 39.9881 30.6131 41.25 29.0625 41.25Z" transform="matrix(1 0 0 1.02222 444 345)"/></g></g></g></g></svg>