<svg id="Capa_1" enable-background="new 0 0 512 512" height="512" viewBox="0 0 512 512" width="512" xmlns="http://www.w3.org/2000/svg"><g><g><g><g><g><g><g><g><g><circle cx="256" cy="256" fill="#7584f2" r="256"/></g></g></g></g></g></g></g></g><path d="m512 256c0-2.873-.048-5.734-.141-8.583l-169.692-169.692-37.15 59.782-83.027-83.027-79.123 131.6-54.31 177.647 147.508 147.508c6.579.507 13.227.765 19.935.765 141.385 0 256-114.615 256-256z" fill="#4855b7"/><g><g><g><g><g><g><g><g><path d="m256 407.035c-83.281 0-151.035-67.754-151.035-151.035s67.754-151.035 151.035-151.035c83.28 0 151.034 67.754 151.034 151.035s-67.754 151.035-151.034 151.035zm0-272.07c-66.739 0-121.035 54.296-121.035 121.035s54.296 121.035 121.035 121.035c66.738 0 121.034-54.296 121.034-121.035s-54.296-121.035-121.034-121.035z" fill="#ff8870"/></g></g></g></g></g></g></g></g><g><g><g><g><g><g><g><g><path d="m407.034 256c0-83.24-67.689-150.968-150.914-151.033v30c66.683.065 120.914 54.335 120.914 121.033s-54.231 120.968-120.914 121.033v30c83.225-.065 150.914-67.793 150.914-151.033z" fill="#ff583e"/></g></g></g></g></g></g></g></g><g><path d="m325.805 186.08h-139.61c-9.037 0-16.363-7.326-16.363-16.363v-115.237h52.157l18.746 23.246h101.431v91.992c.001 9.036-7.324 16.362-16.361 16.362z" fill="#ffce00"/></g><g><path d="m256.12 77.725v108.355h69.684c9.037 0 16.363-7.326 16.363-16.363v-91.992z" fill="#fdba12"/></g><g><g><g><path d="m175.964 208.273h-87.406v155.454h121.817v-121.044z" fill="#fff"/></g><g><path d="m175.964 242.683h34.411l-34.411-34.41z" fill="#e9edf5"/></g></g><g><g><path d="m389.032 208.273h-87.407v155.454h121.817v-121.044z" fill="#e9edf5"/></g><g><path d="m389.032 242.683h34.41l-34.41-34.41z" fill="#cdd2e1"/></g></g></g></g></svg>