<?xml version="1.0" encoding="utf-8"?>
<!-- Generator: Adobe Illustrator 22.1.0, SVG Export Plug-In . SVG Version: 6.00 Build 0)  -->
<svg version="1.1" id="图层_1" xmlns="http://www.w3.org/2000/svg" xmlns:xlink="http://www.w3.org/1999/xlink" x="0px" y="0px"
	 viewBox="0 0 1000 1000" style="enable-background:new 0 0 1000 1000;" xml:space="preserve">
<style type="text/css">
	.st0{fill:#535353;}
	.st1{fill:#006991;}
	.st2{fill:#E48E2B;}
	.st3{fill:#80BD00;}
	.st4{fill:#E81123;}
	.st5{fill:#09BB07;}
	.st6{fill:#F7F910;}
</style>
<path class="st0" d="M928.8,806.3H71.3V193.8h857.5 M990,132.5H10v735h980V132.5L990,132.5z"/>
<path class="st1" d="M331.6,469.7l-43.3-44.5l-130,133.5l43.3,44.5l86.6,89l43.3-44.5l-86.6-89L331.6,469.7z"/>
<path class="st2" d="M711.7,425.2l-43.3,44.5l86.6,89l-86.6,89l43.3,44.5l86.6-89l43.3-44.5L711.7,425.2z"/>
<path class="st3" d="M447.8,745.2l-55.2-27.3l159.3-340.2l55.2,27.3L447.8,745.2z"/>
<path class="st4" d="M132.5,254.8h61.3V316h-61.3V254.8z"/>
<path class="st5" d="M255,254.8h61.2V316H255V254.8z"/>
<path class="st6" d="M377.5,254.8h61.3V316h-61.3V254.8z"/>
</svg>
