<svg xmlns="http://www.w3.org/2000/svg" viewBox="0 0 100 100"><defs><style>.cls-1{fill:#0d6cbe;}.cls-2{fill:#fff;}</style></defs><title>keypoint-icon1</title><g id="圖層_2" data-name="圖層 2"><g id="圖層_1-2" data-name="圖層 1"><path class="cls-1" d="M50,0h0a50,50,0,0,1,50,50h0a50,50,0,0,1-50,50h0A50,50,0,0,1,0,50H0A50,50,0,0,1,50,0Z"/><path class="cls-2" d="M73.87,48.92h2.25V44.19a9.87,9.87,0,0,1-2.25.67Z"/><path class="cls-2" d="M53.23,68.12H74.6a1.52,1.52,0,0,0,1.52-1.52h0v-1H60.22a2.43,2.43,0,0,1-2.42-2.42V61.1H25.37V51.47H23.12V66.6a1.52,1.52,0,0,0,1.51,1.52h28.6Z"/><path class="cls-2" d="M62.44,32.31H51.23v2.62H62.09A10.08,10.08,0,0,1,62.44,32.31Z"/><path class="cls-2" d="M76.79,50.33h-16a1.41,1.41,0,0,0-1.41,1.41h0v11a1.41,1.41,0,0,0,1.41,1.4h16a1.41,1.41,0,0,0,1.41-1.4h0v-11A1.41,1.41,0,0,0,76.79,50.33ZM67.61,55.4a.12.12,0,0,1,.13-.12h.06L71,57.15a.13.13,0,0,1,0,.17l0,0L67.8,59.22a.12.12,0,0,1-.17,0,.08.08,0,0,1,0-.07Z"/><path class="cls-2" d="M66.92,41.78a8.57,8.57,0,0,0,5.22,1.77,9.65,9.65,0,0,0,1.61-.16,8.77,8.77,0,0,0,2.12-.69,8.61,8.61,0,0,0-3.73-16.37h0a8.6,8.6,0,0,0-6.9,13.75l-2.08,3.47Zm6-2a1.52,1.52,0,0,1-1,.34,1.5,1.5,0,0,1-1-.34,1.16,1.16,0,0,1-.4-.9A1.1,1.1,0,0,1,71,38a1.42,1.42,0,0,1,1-.36,1.47,1.47,0,0,1,1,.36,1.14,1.14,0,0,1,.41.89,1.18,1.18,0,0,1-.41.9ZM71,32.47l-.1-1.7c-.06-.94.3-1.41,1.06-1.41s1.12.46,1.07,1.38l-.11,1.73-.16,2.47-.08,1.21c0,.4-.29.59-.78.59s-.67-.19-.68-.56l-.08-1.24Z"/><path class="cls-2" d="M25.37,50H48.11a1.51,1.51,0,0,0,1.51-1.5h0V29.85a1.52,1.52,0,0,0-1.51-1.51H20a1.52,1.52,0,0,0-1.51,1.51h0V48.46A1.51,1.51,0,0,0,20,50h5.35ZM47,46.06a.42.42,0,0,1-.42.43H41.37a.43.43,0,0,1-.43-.43h0V40.82a.43.43,0,0,1,.43-.43h5.25a.42.42,0,0,1,.42.43Zm-.36-8.15H30.1a.43.43,0,1,1,0-.85H46.68a.43.43,0,0,1,.43.43.44.44,0,0,1-.42.43h0ZM47,35.08a.44.44,0,0,1-.37.21H30.06a.44.44,0,0,1-.37-.21.78.78,0,0,1-.05-.14.22.22,0,0,0,0-.08.42.42,0,0,1,.43-.42H46.65a.42.42,0,0,1,.42.42.22.22,0,0,1,0,.08.33.33,0,0,1,0,.13ZM30,31.81H46.61a.43.43,0,0,1,.43.43h0a.17.17,0,0,1,0,.07.41.41,0,0,1-.42.35H30a.41.41,0,0,1-.41-.35.17.17,0,0,1,0-.07.42.42,0,0,1,.42-.42Zm-9,.43a.42.42,0,0,1,.42-.42h5.25a.42.42,0,0,1,.43.42h0v5.25a.42.42,0,0,1-.43.42H21.45a.42.42,0,0,1-.43-.42ZM21.48,43H38.07a.43.43,0,0,1,0,.85H21.48a.43.43,0,0,1,0-.85Zm0,3.47a.43.43,0,1,1,0-.85H38.11a.43.43,0,0,1,0,.85Z"/><polygon class="cls-2" points="55.89 72.65 44.12 72.65 45.18 69.52 54.84 69.52 55.89 72.65"/><rect class="cls-2" x="41.3" y="73.98" width="17.41" height="1.69" rx="0.83"/></g></g></svg>