<?xml version="1.0" encoding="utf-8"?>
<!-- Generator: Adobe Illustrator 22.1.0, SVG Export Plug-In . SVG Version: 6.00 Build 0)  -->
<svg version="1.1" id="图层_1" xmlns="http://www.w3.org/2000/svg" xmlns:xlink="http://www.w3.org/1999/xlink" x="0px" y="0px"
	 viewBox="0 0 1000 1000" style="enable-background:new 0 0 1000 1000;" xml:space="preserve">
<style type="text/css">
	.st0{fill:#E33C25;}
	.st1{fill:#2A579A;}
	.st2{fill:#B7472A;}
	.st3{fill:#217346;}
</style>
<path class="st0" d="M20.7,86.8L20.7,86.8L20.7,86.8z"/>
<path class="st0" d="M10,13.3"/>
<path class="st0" d="M971.2,259.6c12.5,12.5,18.8,27.2,18.8,44.1s-6.2,31.3-18.8,43.2L796.5,521.4c-12.5,12.5-27.1,18.8-43.6,18.8
	c-16.6,0-31.1-6.2-43.6-18.8L534.6,346.8c-11.8-11.8-17.8-26.3-17.8-43.2s6-31.6,17.8-44.1L709.3,84.9C721.8,73,736.3,67,752.9,67
	s31.1,6,43.6,17.8L971.2,259.6z M788,474.4l137.8-137.8c19.1-19.1,19.1-50.1,0-69.1L788,129.8c-19.1-19.1-50.1-19.1-69.1,0
	L581,267.6c-19.1,19.1-19.1,50.1,0,69.1l137.8,137.8C737.9,493.5,768.9,493.5,788,474.4L788,474.4z"/>
<path class="st1" d="M380.2,118.5c17.6,0,32.6,6,44.5,17.8c12,12,17.7,26.5,17.2,43.9l-0.1,247c0,17.6-5.9,32.5-17.6,44.1
	c-11.7,11.7-26.4,17.6-44.1,17.6h-247c-16.7,0-31.1-6-43.2-18c-12-12-18.1-26.6-18.6-43.9l0.1-247c0.5-17.2,6.5-31.8,18.2-43.5
	s26.3-17.8,43.5-18.2h247.1V118.5z M402.6,400V205.2c0-26.9-22-48.9-48.9-48.9H158.9c-26.9,0-48.9,22-48.9,48.9V400
	c0,26.9,22,48.9,48.9,48.9h194.8C380.6,448.9,402.6,426.9,402.6,400z"/>
<path class="st2" d="M380.8,615.2c17.6,0,32.6,6,44.5,17.8c12,12,17.7,26.5,17.2,43.8l-0.1,247c0,17.6-5.9,32.5-17.6,44.1
	c-11.7,11.7-26.4,17.6-44.1,17.6h-247c-16.7,0-31.1-6-43.2-18c-12-12-18.1-26.6-18.6-43.9l0.1-247c0.5-17.2,6.5-31.8,18.2-43.5
	s26.3-17.8,43.5-18.2h247.1V615.2z M403.3,896.8V702c0-26.9-22-48.9-48.9-48.9H159.6c-26.9,0-48.9,22-48.9,48.9v194.8
	c0,26.9,22,48.9,48.9,48.9h194.8C381.3,945.7,403.3,923.7,403.3,896.8z"/>
<path class="st3" d="M876.9,616.3c17.6,0,32.6,6,44.5,17.8c12,12,17.7,26.5,17.2,43.8l-0.1,247c0,17.6-5.9,32.5-17.6,44.1
	c-11.7,11.7-26.4,17.6-44.1,17.6H629.9c-16.7,0-31.1-6-43.2-18c-12-12-18.1-26.6-18.6-43.9l0.1-247c0.5-17.2,6.5-31.8,18.2-43.5
	s26.3-17.8,43.5-18.2h247V616.3z M899.2,897.9V703.1c0-26.9-22-48.9-48.9-48.9H655.6c-26.9,0-48.9,22-48.9,48.9v194.8
	c0,26.9,22,48.9,48.9,48.9h194.8C877.3,946.8,899.2,924.8,899.2,897.9z"/>
</svg>
