<?xml version="1.0" encoding="utf-8"?>
<!-- Generator: Adobe Illustrator 22.1.0, SVG Export Plug-In . SVG Version: 6.00 Build 0)  -->
<svg version="1.1" id="图层_1" xmlns="http://www.w3.org/2000/svg" xmlns:xlink="http://www.w3.org/1999/xlink" x="0px" y="0px"
	 viewBox="0 0 1000 1000" style="enable-background:new 0 0 1000 1000;" xml:space="preserve">
<style type="text/css">
	.st0{fill:#232332;}
	.st1{fill:#EB3C00;}
</style>
<g transform="translate(0.000000,512.000000) scale(0.100000,-0.100000)">
	<path class="st0" d="M4258.4,4996.4c-70.9-32.6-134.1-99.6-161-170.5c-13.4-34.5-21.1-266.4-21.1-624.7V3632l-195.5-63.2
		c-109.2-34.5-316.2-118.8-461.8-189.7l-264.5-126.5L2748.2,3657c-224.2,222.3-425.4,413.9-448.4,425.4
		c-61.3,30.7-189.7,24.9-260.6-9.6c-78.6-40.2-898.8-852.8-973.5-963.9c-59.4-92-74.7-216.6-34.5-295.1
		c11.5-23,203.1-226.1,427.3-450.3l404.3-406.3l-70.9-132.2c-84.3-155.2-228-505.9-274-670.7l-32.6-115l-599.8-5.8
		c-573-5.7-603.6-7.7-653.5-46c-28.7-21.1-70.9-63.2-92-92c-38.3-51.7-40.2-74.7-40.2-778s1.9-726.3,40.2-778
		c21.1-28.8,63.2-70.9,92-92c49.8-38.3,80.5-40.2,653.5-46l599.8-5.8l32.6-118.8c47.9-168.7,130.3-375.6,245.3-603.6l97.7-197.4
		l-404.3-406.3c-222.3-224.2-413.9-425.4-425.4-448.4c-30.7-61.3-24.9-189.7,9.6-260.6c40.2-78.6,852.8-898.8,963.9-973.5
		c92-59.4,216.6-74.7,295.1-34.5c23,11.5,224.2,203.1,446.5,423.5l406.3,402.4l235.7-115c130.3-65.2,339.2-149.5,461.8-189.7
		l224.2-72.8l5.8-597.9c5.7-569.2,7.7-599.8,46-649.6c21.1-28.8,63.2-70.9,92-92c51.7-38.3,74.7-40.2,778-40.2s726.3,1.9,778,40.2
		c28.7,21.1,70.9,63.3,92,92c38.3,49.8,40.2,80.5,46,651.5l5.7,597.9l151.4,53.7l153.3,53.7v295.1c0,162.9-3.8,295.1-9.6,295.1
		c-3.8,0-122.6-38.3-262.5-84.3s-304.7-93.9-366-107.3c-124.6-24.9-216.5-92-254.9-185.9c-21.1-47.9-26.8-185.9-26.8-580.6V-4175
		h-306.6h-306.6v517.4c0,703.3,3.8,693.7-402.4,797.2c-325.8,82.4-617.1,201.2-881.5,360.3c-373.7,224.2-362.2,228-848.9-252.9
		l-377.5-375.6L1962.7-2914L1748-2699.6l367.9,367.9c201.2,203.1,375.6,394.8,387.1,423.5c42.2,111.1,26.8,189.7-76.7,360.3
		c-216.5,354.5-339.2,647.7-419.7,1000.3c-47.9,207-97.7,287.5-205,331.5c-47.9,21.1-185.9,26.8-580.6,26.8H703.6v306.6V424H1221
		c703.3,0,693.7-3.8,797.2,402.4c82.4,325.8,201.2,617.1,362.2,885.3c145.6,241.5,168.6,331.5,115,438.8
		c-17.2,36.4-193.5,226.1-389,425.4L1748,2934.4l214.6,214.6l216.5,216.5l367.9-367.9c203.1-201.2,394.8-375.6,423.5-387.1
		c111.2-42.2,189.7-26.8,360.3,76.7c354.5,216.5,647.7,339.2,1000.3,419.7c207,47.9,287.5,97.7,331.5,205
		c21.1,47.9,26.8,185.9,26.8,580.6V4410H4996h306.6v-517.4c0-394.8,5.8-532.7,26.8-580.6c42.1-101.6,126.5-159.1,293.2-195.5
		c354.5-78.6,672.6-205,983.1-392.8c350.7-212.7,346.9-214.6,829.8,264.5l377.5,375.6l214.6-214.6l214.6-214.6l-375.6-377.5
		c-318.1-321.9-377.5-390.9-389-452.2c-21.1-115,0-187.8,95.8-339.2c185.9-285.5,343-668.8,421.6-1021.4
		c36.4-166.7,93.9-251,195.5-293.2c47.9-21.1,185.9-26.8,580.6-26.8h517.4V117.4v-306.6h-517.4c-691.8,0-688,1.9-795.3-375.6
		c-36.4-124.6-63.2-226.1-61.3-228c1.9-1.9,116.9-36.4,253-76.7c138-40.3,258.7-76.7,272.1-80.5c13.4-5.7,32.6,23,46,69l23,76.7
		l599.8,5.8c571.1,5.8,601.7,7.7,651.6,46c28.7,21.1,70.9,63.2,92,92c38.3,49.8,40.2,80.5,46,749.3c5.7,779.9,5.7,787.6-122.6,883.4
		l-70.9,55.6l-596,5.7l-596,5.8l-63.2,195.5c-34.5,107.3-120.7,314.3-189.7,459.9L8131.3,1959l404.4,406.3
		c222.3,224.2,413.9,425.4,425.4,448.4c26.8,53.7,26.8,187.8,0,241.5c-30.7,59.4-956.3,986.9-1017.6,1021.4
		c-61.3,32.6-193.5,34.5-251,5.7c-23-11.5-224.2-203.1-448.4-425.4l-406.3-404.4l-216.5,109.2c-118.8,57.5-327.7,143.7-461.8,189.7
		l-243.4,82.4v571.1c0,638.1-3.8,661.1-126.5,753.1l-70.9,55.6l-701.4,3.8C4461.6,5021.3,4304.4,5017.5,4258.4,4996.4z"/>
	<path class="st0" d="M4727.9,2558.8c-571.1-72.8-1054-310.4-1458.3-714.8c-356.4-354.5-574.9-755-680.3-1247.5
		c-49.8-228-49.8-730.1,0-958.2c105.4-492.5,323.9-893,680.3-1247.5c354.5-356.4,755-574.9,1247.5-680.3
		c228-49.8,730.1-49.8,958.2,0c975.4,210.8,1717,952.4,1927.8,1927.8c49.8,228,49.8,730.1,0,958.2
		c-105.4,492.5-323.8,893-680.3,1247.5c-348.8,348.8-732,561.5-1209.2,670.7C5354.6,2551.2,4879.3,2578,4727.9,2558.8z M5414,1911.1
		c329.6-82.4,619-241.5,862.3-479.1C6797.6,928,6970,169.2,6720.9-520.7c-174.4-481-605.5-912.2-1086.6-1086.6
		C5088.2-1804.6,4475-1737.6,4005.5-1431c-402.4,262.5-686,665-804.9,1142.1c-44.1,178.2-44.1,634.3,0,812.5
		c88.2,356.4,266.4,668.8,515.5,908.3c281.7,270.2,578.7,425.4,960.1,498.2C4846.7,1962.8,5243.4,1951.3,5414,1911.1z"/>
	<path class="st1" d="M7755.7-1875.5v-459.9h-459.9h-459.9V-2642v-306.6h459.9h459.9v-459.9v-459.9h306.6h306.6v459.9v459.9h459.9
		h459.9v306.6v306.6h-459.9h-459.9v459.9v459.9h-306.6h-306.6V-1875.5z"/>
</g>
</svg>
