<?xml version="1.0" encoding="utf-8"?>
<!-- Generator: Adobe Illustrator 22.1.0, SVG Export Plug-In . SVG Version: 6.00 Build 0)  -->
<svg version="1.1" id="图层_1" xmlns="http://www.w3.org/2000/svg" xmlns:xlink="http://www.w3.org/1999/xlink" x="0px" y="0px"
	 viewBox="0 0 1000 1000" style="enable-background:new 0 0 1000 1000;" xml:space="preserve">
<style type="text/css">
	.st0{fill:#EB3C00;}
</style>
<g>
	<path class="st0" d="M989.1,476.6h-0.5c-0.8-17.5-15.2-31.4-32.8-31.4c-18.2,0-32.9,14.7-32.9,32.9c0,3.6,0.6,7.1,1.7,10.3
		c0.1,2.2,0.2,4.4,0.2,6.6c0,234.2-190.5,424.7-424.7,424.7c-132.3,0-250.2-61.1-328.1-156.2h138.3c1.3,0.2,2.6,0.3,3.9,0.3
		s2.6-0.1,3.9-0.3h1.4v-0.2c15.7-2.5,27.6-16.1,27.6-32.5s-12-29.9-27.6-32.5v-0.2H318c-1.3-0.2-2.6-0.3-3.9-0.3s-2.6,0.1-3.9,0.3
		H123.4H58.1v65.3v194.4c-0.2,1.4-0.3,2.8-0.3,4.3c0,18.2,14.7,32.9,32.9,32.9s32.9-14.7,32.9-32.9c0-1.2-0.1-2.4-0.2-3.6V806.9
		c89.8,108.5,225,178,376.6,178c270.2,0,490-219.8,490-490C990,488.8,989.3,482.8,989.1,476.6z"/>
	<path class="st0" d="M77.8,540.6L77.8,540.6c0-0.3,0-0.5,0-0.8c0-1.7-0.2-3.5-0.5-5.1c-1.2-13.1-1.9-26.3-1.9-39.7
		C75.3,260.8,265.8,70.3,500,70.3c141.2,0,266,69.6,343.1,175.9H699.7c-1.3-0.2-2.6-0.3-3.9-0.3c-18.2,0-32.9,14.7-32.9,32.9
		c0,18.2,14.7,32.9,32.9,32.9c1.3,0,2.6-0.1,3.9-0.3h182.7c0.1,0.1,0.1,0.2,0.2,0.3h71.6c0-0.1-0.1-0.2-0.2-0.3h0.2v-65.3V57.5
		c0.2-1.4,0.3-2.8,0.3-4.3c0-18.2-14.7-32.9-32.9-32.9S888.7,35,888.7,53.2c0,1.2,0.1,2.4,0.2,3.5V198C799.3,80.9,658.5,5,500,5
		C229.8,5,10,224.8,10,495c0,14.6,0.8,29,2.1,43.2c-0.1,0.8-0.1,1.6-0.1,2.4c0,18.2,14.7,32.9,32.9,32.9S77.8,558.8,77.8,540.6z"/>
</g>
</svg>
